Coordinates
version=1
nRows=11
nColumns=36
inDegrees=yes

Units are S.I. units (second, meters, Newtons, ...)
If the header above contains a line with 'inDegrees', this indicates whether rotational values are in degrees (yes) or radians (no).

endheader
time	pelvis_tilt	pelvis_list	pelvis_rotation	pelvis_tx	pelvis_ty	pelvis_tz	hip_flexion_r	hip_adduction_r	hip_rotation_r	knee_angle_r	knee_angle_r_beta	ankle_angle_r	subtalar_angle_r	mtp_angle_r	hip_flexion_l	hip_adduction_l	hip_rotation_l	knee_angle_l	knee_angle_l_beta	ankle_angle_l	subtalar_angle_l	mtp_angle_l	lumbar_extension	lumbar_bending	lumbar_rotation	arm_flex_r	arm_add_r	arm_rot_r	elbow_flex_r	pro_sup_r	arm_flex_l	arm_add_l	arm_rot_l	elbow_flex_l	pro_sup_l
      9.46666670	    -18.44895606	      0.14454382	      1.98398417	     -0.15384435	      0.67152467	      0.06736256	     72.61368267	    -11.24461790	     -3.67069718	     89.21982066	      1.55717963	     38.43856689	     -3.57299774	     -7.49999987	     75.10885147	    -20.80012519	     -3.23777024	     89.71111395	      1.56575431	     34.19826901	      0.66814342	     -7.49999987	    -19.09615207	      0.80859271	     -2.52318357	    111.42595257	      5.22791818	     54.47324100	     44.41757873	     61.46747229	    120.43256635	      2.66842361	     79.17752179	    108.71320509	     62.62298367
      9.48333330	    -18.38465753	      0.21691386	      1.98842426	     -0.15452302	      0.66309109	      0.06531623	     74.01657220	    -11.49685289	     -3.29307841	     91.41905934	      1.59556358	     39.06684900	     -3.47338165	     -7.49999987	     76.36367341	    -21.10925860	     -2.88922849	     91.74225025	      1.60120433	     34.69831097	      0.83402602	     -7.49999987	    -18.85653553	      0.99991383	     -2.67282077	    109.70011374	      4.13225326	     52.90332960	     48.12359096	     61.89036290	    119.49788971	      2.05433219	     79.95521392	    112.61736954	     63.39238269
      9.50000000	    -18.35061818	      0.36551160	      1.98623893	     -0.15610817	      0.65056580	      0.06753543	     75.71776777	    -11.60103920	     -2.74104782	     93.82641373	      1.63757984	     40.06789372	     -3.19304468	     -7.49999987	     77.80868903	    -21.40384105	     -2.48206563	     93.83579045	      1.63774350	     35.24308946	      0.69604657	     -7.49999987	    -18.81934821	      0.65779808	     -2.69644638	    107.41772425	      2.87018288	     48.42963734	     53.68542896	     64.47687639	    119.53067262	      2.10900138	     80.71404704	    114.81558874	     66.32298380
      9.51666670	    -18.14861678	      0.38330909	      1.89262975	     -0.16539818	      0.63829079	      0.06636398	     77.50351076	    -11.56476376	     -2.27229532	     96.15914512	      1.67829369	     40.43983109	     -3.08585293	     -7.49999987	     79.63441846	    -21.64215090	     -1.86484482	     96.05826288	      1.67653296	     35.53000910	      0.27452741	     -7.49999987	    -19.62238837	      0.82761014	     -3.22077901	    108.32293600	      2.94685727	     48.06143015	     54.74642044	     64.73200254	    120.55854950	      1.15658358	     80.55156382	    114.67817534	     66.50282158
      9.53333330	    -17.98764777	      0.39379024	      1.92025029	     -0.16668589	      0.62723709	      0.06569773	     79.36160698	    -11.73478412	     -1.77749436	     98.52600945	      1.71960326	     40.82874024	     -3.23397274	     -7.49999987	     81.45554282	    -21.63286338	     -1.13667514	     98.14105859	      1.71288460	     35.61330832	     -0.63589966	     -7.49999987	    -20.29906170	      0.79410648	     -3.04890363	    108.49260801	      2.04280520	     46.42367002	     56.27716831	     64.53401309	    121.14262894	      1.33837844	     79.89678732	    113.35508503	     66.19681686
      9.55000000	    -18.15490924	      0.30345414	      2.01415355	     -0.16702092	      0.61757563	      0.06789805	     81.05153935	    -11.83184460	     -1.52260820	    100.45421865	      1.75325686	     41.54254892	     -2.57819268	     -7.49999987	     83.40390812	    -21.87877929	     -0.37048987	    100.00814379	      1.74547139	     35.86737663	     -0.16358593	     -7.49999987	    -20.47999290	      0.84012062	     -3.26053854	    107.86386594	      2.37886838	     45.64416059	     59.32247033	     64.82658604	    121.44919048	      1.10439736	     80.94015006	    114.44333165	     66.29366957
      9.56666670	    -18.11706409	      0.29620446	      2.09038794	     -0.17126353	      0.60597564	      0.06912624	     82.80348630	    -11.87440511	     -1.20810057	    102.47904082	      1.78859668	     41.48693070	     -3.18469472	     -7.49999987	     85.25626625	    -21.92388131	      0.45297778	    101.88321338	      1.77819753	     35.95775667	     -0.24643271	     -7.49999987	    -20.97562339	      0.79753622	     -3.03777135	    107.83154865	      2.52445279	     45.12047485	     59.41258097	     65.53397643	    121.47143716	      1.72946237	     81.42121897	    115.52216833	     66.59888204
      9.58333330	    -18.02110614	      0.24443430	      2.20398951	     -0.17078934	      0.59506957	      0.06627295	     84.27962758	    -11.97255619	     -0.82018703	    104.37215041	      1.82163767	     41.60579363	     -3.56596896	     -7.49999987	     87.05909565	    -21.85544702	      1.37628092	    103.93420705	      1.81399412	     35.84885757	     -0.58237748	     -7.49999987	    -21.25669739	      0.91114520	     -2.41671472	    106.95409450	      1.34909333	     49.38155103	     75.21280442	     67.75413588	    121.07010901	      2.15964569	     82.15181658	    117.24662096	     68.01254611
      9.60000000	    -18.10499029	      0.08256075	      2.30018995	     -0.17427754	      0.58760145	      0.06641847	     85.62266189	    -11.99707355	     -0.51782859	    106.06763535	      1.85122947	     41.89014039	     -3.71911515	     -7.49999987	     88.86691742	    -21.75560443	      2.26427469	    105.59723132	      1.84301937	     35.76545002	     -0.69821700	     -7.49999987	    -21.42693257	      1.01360971	     -3.11441030	    105.72069715	      1.14652348	     47.18099396	     69.21670356	     68.20475115	    120.55184938	      2.28563748	     82.57687587	    116.22628085	     68.12624790
      9.61666670	    -17.83089362	      0.02483135	      2.42304094	     -0.17986977	      0.57593381	      0.06692679	     87.25625937	    -12.17667376	     -0.09898865	    108.05516840	      1.88591846	     41.83045812	     -4.15103307	     -7.49999987	     90.59343185	    -21.37986078	      3.21577040	    107.42327927	      1.87488992	     35.39312892	     -1.20398988	     -7.49999987	    -22.28268360	      1.19671440	     -2.96256771	    106.52281903	      1.83555119	     45.11862588	     64.97251490	     74.04916523	    120.68437223	      2.24044376	     82.67590270	    116.06196411	     69.18463923
      9.63333330	    -17.82339977	     -0.06695467	      2.69238886	     -0.17882215	      0.56487363	      0.06748679	     88.90632892	    -12.32444207	      0.44377240	    110.16039367	      1.92266157	     42.09375877	     -4.33781651	     -7.49999987	     92.47325323	    -21.09678747	      4.20983750	    109.30121168	      1.90766602	     35.10163548	     -1.42942357	     -7.49999987	    -23.10180510	      1.21622400	     -2.60400706	    107.93357458	      1.44875882	     43.95965296	     63.12664827	     73.89622197	    121.54653170	      2.79234519	     82.37622717	    115.43117342	     69.13823289
